<?xml version="1.0" encoding="utf-8"?>
<!-- Generator: $$$/GeneralStr/196=Adobe Illustrator 27.6.0, SVG Export Plug-In . SVG Version: 6.00 Build 0)  -->
<svg version="1.1" id="Ebene_1" xmlns="http://www.w3.org/2000/svg" xmlns:xlink="http://www.w3.org/1999/xlink" x="0px" y="0px"
	 viewBox="0 0 220.2 219.6" style="enable-background:new 0 0 220.2 219.6;" xml:space="preserve">
<style type="text/css">
	.st0{clip-path:url(#SVGID_00000047029662415022874690000002694112889924340129_);fill:#015DB2;}
	
		.st1{clip-path:url(#SVGID_00000006684489486681202620000004147250408005854877_);fill:none;stroke:#FFFFFF;stroke-width:5.9998;stroke-miterlimit:3.9999;}
	.st2{clip-path:url(#SVGID_00000011002927991675050750000016855176644164363689_);fill:#FFFFFF;}
	.st3{clip-path:url(#SVGID_00000163790865211233631400000003317524127278697891_);fill:#FFFFFF;}
	.st4{clip-path:url(#SVGID_00000005245973795627828860000003976858215762072495_);fill:#FFFFFF;}
	.st5{clip-path:url(#SVGID_00000136403816966660444330000013704775983929147295_);fill:#565655;}
	.st6{clip-path:url(#SVGID_00000003062559470553439030000011715092277623470722_);fill:#565655;}
	.st7{clip-path:url(#SVGID_00000168112013754849075730000001653577764278133175_);fill:#565655;}
</style>
<g>
	<g>
		<defs>
			
				<rect id="SVGID_1_" x="3.4" y="3.2" transform="matrix(0.9969 -7.818535e-02 7.818535e-02 0.9969 -8.2466 8.9331)" width="213.2" height="213.2"/>
		</defs>
		<clipPath id="SVGID_00000142175680072821904760000005961974914833502624_">
			<use xlink:href="#SVGID_1_"  style="overflow:visible;"/>
		</clipPath>
		<path style="clip-path:url(#SVGID_00000142175680072821904760000005961974914833502624_);fill:#015DB2;" d="M118.2,216.1
			c58.7-4.6,102.5-55.9,98-114.5S160.2-1.1,101.6,3.5S-0.9,59.4,3.7,118.1S59.6,220.6,118.2,216.1"/>
	</g>
	<g>
		<defs>
			
				<rect id="SVGID_00000044139517095520440490000017487328425862765702_" x="3.3" y="3.1" transform="matrix(6.279004e-03 -1 1 6.279004e-03 -0.4817 218.978)" width="213.2" height="213.2"/>
		</defs>
		<clipPath id="SVGID_00000152252044024245780010000000320253810557334446_">
			<use xlink:href="#SVGID_00000044139517095520440490000017487328425862765702_"  style="overflow:visible;"/>
		</clipPath>
		
			<ellipse style="clip-path:url(#SVGID_00000152252044024245780010000000320253810557334446_);fill:none;stroke:#FFFFFF;stroke-width:5.9998;stroke-miterlimit:3.9999;" cx="110" cy="109.8" rx="98.9" ry="98.9"/>
	</g>
	<g>
		<defs>
			
				<rect id="SVGID_00000155116446966139278430000008678733829944400806_" x="3.4" y="3.2" transform="matrix(0.9969 -7.818535e-02 7.818535e-02 0.9969 -8.2466 8.9331)" width="213.2" height="213.2"/>
		</defs>
		<clipPath id="SVGID_00000108283260648628494740000002086374676997594535_">
			<use xlink:href="#SVGID_00000155116446966139278430000008678733829944400806_"  style="overflow:visible;"/>
		</clipPath>
		<path style="clip-path:url(#SVGID_00000108283260648628494740000002086374676997594535_);fill:#FFFFFF;" d="M115,175.3
			c36.2-2.9,63.3-34.5,60.4-70.7s-34.5-63.3-70.7-60.4c-36.2,2.9-63.3,34.5-60.4,70.7C47.2,151.1,78.9,178.2,115,175.3"/>
	</g>
	<g>
		<defs>
			
				<rect id="SVGID_00000081624231295109000720000005991346956989042357_" x="3.4" y="3.2" transform="matrix(0.9969 -7.818535e-02 7.818535e-02 0.9969 -8.2466 8.9331)" width="213.2" height="213.2"/>
		</defs>
		<clipPath id="SVGID_00000034791339531770666990000007582584695963642542_">
			<use xlink:href="#SVGID_00000081624231295109000720000005991346956989042357_"  style="overflow:visible;"/>
		</clipPath>
		<path style="clip-path:url(#SVGID_00000034791339531770666990000007582584695963642542_);fill:#FFFFFF;" d="M157.1,53.6l3.7-4.5
			c0.3-0.5,0.7-0.7,1.1-0.9c0.4-0.2,0.8-0.2,1.1-0.2s0.7,0.2,1.1,0.4c0.2,0.2,0.5,0.4,0.6,0.7c0.1,0.3,0.3,0.6,0.4,1l1.9-1.6
			c0-0.7-0.4-1.3-1-1.9c-0.3-0.2-0.8-0.5-1.3-0.5c-0.5,0-0.9-0.1-1.4,0.2l0.8-0.9l-2-1.7l-6.9,8.2L157.1,53.6z M152.3,40.2
			c0.6-0.1,1.1,0,1.7,0.3c0.3,0.2,0.7,0.5,0.9,0.9c0.1,0.3,0.2,0.7,0.2,1.1c0,0.4-0.2,0.7-0.4,1.2l-3.8-2.4
			C151.2,40.6,151.8,40.3,152.3,40.2 M151.5,48.9c0.7,0.1,1.4,0,2.1-0.2l-0.5-2.2c-0.5,0.2-1,0.2-1.3,0.1c-0.4,0-0.8-0.2-1.3-0.5
			c-0.4-0.2-0.7-0.6-0.9-0.9c-0.2-0.4-0.3-0.8-0.3-1.2s0.2-0.8,0.4-1.3l6,3.7c0.2-0.2,0.3-0.5,0.5-0.7s0.2-0.4,0.3-0.6
			c0.6-1,0.9-1.9,1-2.8c0.1-0.8-0.2-1.6-0.6-2.3c-0.4-0.6-1-1.3-1.7-1.7c-0.9-0.6-1.8-0.8-2.6-0.8c-0.9,0-1.7,0.3-2.5,0.7
			c-0.8,0.5-1.5,1.3-2.1,2.3c-0.5,1-0.9,1.9-1.1,2.8c-0.1,0.9,0.1,1.8,0.4,2.6c0.4,0.7,1,1.5,1.9,2C150,48.7,150.7,48.8,151.5,48.9
			 M142.6,44.2c0.4,0,0.7,0.1,1.1,0.1l1.2-1.9c-0.7,0-1.3-0.1-1.8-0.2c-0.2-0.2-0.5-0.3-0.5-0.5c0-0.2,0-0.5,0.1-0.7L145,36l2.2,1.1
			l1-2.1l-2.2-1.1l1.9-4.1l-2.9,0.1l-1.4,2.9l-1.4-0.7l-1,2.1l1.4,0.7l-2.4,5.4c-0.4,0.9-0.4,1.6-0.3,2.2c0.2,0.6,0.7,1.1,1.5,1.5
			C141.8,44,142.2,44.2,142.6,44.2 M133.2,40.2l1.9-5.6c0.2-0.5,0.4-0.9,0.7-1.2c0.2-0.3,0.6-0.5,0.9-0.6c0.4-0.1,0.7,0,1.1,0.1
			c0.3,0.1,0.5,0.2,0.8,0.5c0.2,0.2,0.5,0.4,0.6,0.7l1.2-2.1c-0.3-0.7-0.9-1.1-1.5-1.4c-0.4-0.1-0.9-0.2-1.4-0.1
			c-0.5,0.1-0.9,0.3-1.2,0.7l0.3-1.1l-2.5-0.8l-3.5,10.1L133.2,40.2z M124,29.4c0.5-0.3,1.1-0.4,1.7-0.3c0.4,0.1,0.8,0.3,1.1,0.4
			c0.2,0.3,0.5,0.5,0.6,0.9s0.1,0.8,0.1,1.2l-4.5-0.8C123.1,30.3,123.4,29.8,124,29.4 M126.3,37.9c0.7-0.2,1.3-0.5,1.9-0.9l-1.2-1.8
			c-0.4,0.3-0.8,0.5-1.2,0.6c-0.4,0.1-0.9,0.1-1.3,0c-0.4-0.1-0.9-0.3-1.2-0.5c-0.3-0.2-0.5-0.6-0.7-1c-0.2-0.4-0.1-0.9-0.1-1.3
			l6.9,1.3c0.1-0.2,0.1-0.5,0.2-0.7c0.1-0.2,0.1-0.5,0.1-0.6c0.2-1.2,0.2-2.2-0.1-2.9c-0.2-0.9-0.8-1.5-1.3-2
			c-0.6-0.5-1.3-0.8-2.2-1c-1-0.1-1.9-0.1-2.7,0.1c-0.9,0.3-1.5,0.8-2.1,1.6c-0.6,0.8-0.9,1.7-1.2,2.8c-0.2,1.2-0.2,2.2,0.1,3
			c0.2,0.9,0.7,1.6,1.4,2.2c0.6,0.6,1.5,1,2.5,1.2C124.8,38.2,125.6,38.2,126.3,37.9 M117.3,24.2c0.4-0.3,0.5-0.6,0.5-1.1
			c0-0.4-0.1-0.8-0.4-1.2c-0.3-0.4-0.6-0.5-1.1-0.5c-0.4,0-0.8,0.1-1.2,0.4c-0.4,0.3-0.5,0.6-0.5,1c0,0.4,0.1,0.8,0.4,1.2
			c0.3,0.4,0.7,0.5,1.1,0.5C116.6,24.6,117,24.5,117.3,24.2 M116.8,36.8l0.7-10.7l-2.7-0.2l-0.7,10.7L116.8,36.8z M111.6,36.3
			l-0.1-2.3l-5.4,0.2l5.2-6.6l-0.1-1.9l-8.5,0.4l0.1,2.3l5.1-0.2l-5.2,6.6l0.1,2L111.6,36.3z M97.7,24.7c0.2-0.3,0.3-0.8,0.2-1.2
			c-0.1-0.4-0.3-0.8-0.7-1c-0.3-0.2-0.8-0.3-1.2-0.2s-0.8,0.3-1,0.7c-0.2,0.3-0.3,0.8-0.2,1.2c0.1,0.4,0.3,0.8,0.7,1
			c0.3,0.2,0.8,0.3,1.2,0.2C97.1,25.3,97.4,25,97.7,24.7 M100.3,36.9l-2-10.5l-2.6,0.5l2,10.5L100.3,36.9z M93.1,38.4l-1.6-8.2
			l2.3-0.5l-0.5-2.3L91,27.9l-0.2-1.1c0-0.3,0-0.5,0.1-0.6c0.1-0.1,0.3-0.2,0.6-0.3c0.2,0,0.5-0.1,0.7,0c0.3,0.1,0.5,0,0.8,0.2
			L92.6,24c-0.3-0.1-0.7-0.2-1.2-0.2c-0.4,0-0.8,0-1.3,0.1c-0.8,0.1-1.4,0.5-1.8,1c-0.3,0.5-0.4,1.2-0.3,2l0.4,1.7L87,28.7l0.5,2.3
			l1.5-0.2l1.6,8.2L93.1,38.4z M83.1,28.1c0.1-0.3,0.2-0.7,0-1.2c-0.2-0.4-0.4-0.6-0.8-0.9c-0.3-0.1-0.7-0.2-1.2,0
			c-0.4,0.2-0.7,0.4-0.9,0.8c-0.1,0.3-0.2,0.7,0,1.1c0.2,0.4,0.4,0.6,0.8,0.9c0.4,0.1,0.7,0.2,1.2,0.1
			C82.6,28.8,82.9,28.6,83.1,28.1 M87.5,39.9l-3.6-10.2l-2.5,0.9L85,40.8L87.5,39.9z M82.2,42c0.3-0.2,0.6-0.5,0.8-0.7L82.4,39
			c-0.4,0.6-0.9,1-1.3,1.1c-0.3,0.1-0.5,0.2-0.7,0c-0.2-0.1-0.3-0.2-0.5-0.6l-2.2-4.9l2.3-1l-0.9-2.1l-2.3,1l-1.8-4.1L73,30.7
			l1.3,2.9l-1.4,0.6l0.9,2.1l1.4-0.6l2.4,5.4c0.3,0.9,0.8,1.4,1.5,1.7c0.5,0.2,1.2,0.2,2-0.1C81.6,42.4,81.9,42.2,82.2,42 M73,46.4
			L70,41.3c-0.3-0.5-0.5-0.9-0.5-1.3c-0.1-0.4,0-0.8,0.1-1.1c0.1-0.3,0.4-0.6,0.8-0.8c0.3-0.1,0.6-0.3,0.9-0.3c0.3,0,0.6-0.1,1,0
			l-0.9-2.3c-0.7-0.2-1.4-0.1-2.1,0.3c-0.4,0.3-0.7,0.6-0.9,1.1c-0.2,0.4-0.4,0.9-0.3,1.4l-0.6-1l-2.2,1.4l5.6,9.2L73,46.4z
			 M58.8,46.2c0.1-0.5,0.4-1.1,0.9-1.5c0.4-0.3,0.7-0.4,1-0.5c0.4-0.1,0.7,0,1,0.1s0.7,0.4,1,0.7L59.2,48
			C58.9,47.4,58.7,46.8,58.8,46.2 M66.8,50.2c0.3-0.7,0.5-1.3,0.6-2l-2.2-0.4c0,0.5-0.2,0.9-0.3,1.3c-0.2,0.3-0.5,0.7-0.8,1
			c-0.4,0.3-0.7,0.4-1.1,0.5c-0.4,0.1-0.8,0-1.2-0.2c-0.4-0.1-0.8-0.4-1-0.8l5.5-4.3c-0.1-0.2-0.3-0.5-0.4-0.6
			c-0.1-0.2-0.3-0.4-0.4-0.5c-0.8-0.9-1.5-1.6-2.2-1.9c-0.8-0.4-1.6-0.4-2.4-0.3c-0.8,0.1-1.5,0.5-2.2,1.1c-0.8,0.6-1.4,1.3-1.7,2.2
			c-0.3,0.9-0.3,1.7-0.2,2.6c0.1,0.9,0.6,1.8,1.4,2.7c0.7,0.9,1.5,1.6,2.3,1.9c0.9,0.4,1.7,0.5,2.5,0.5c0.9-0.1,1.7-0.5,2.6-1.1
			C65.9,51.4,66.5,50.8,66.8,50.2 M60,55.6l-1.9-1.7l-5.2,5.7l-2.2-12.5l-1.5-1.4l-7.3,8l1.9,1.7l4.9-5.3l2.2,12.5l1.5,1.4L60,55.6z
			"/>
	</g>
	<g>
		<defs>
			
				<rect id="SVGID_00000144333777832186619040000001454434869634978694_" x="3.4" y="3.2" transform="matrix(0.9969 -7.818535e-02 7.818535e-02 0.9969 -8.2466 8.9331)" width="213.2" height="213.2"/>
		</defs>
		<clipPath id="SVGID_00000106144702328874090430000016973431195085585838_">
			<use xlink:href="#SVGID_00000144333777832186619040000001454434869634978694_"  style="overflow:visible;"/>
		</clipPath>
		<path style="clip-path:url(#SVGID_00000106144702328874090430000016973431195085585838_);fill:#FFFFFF;" d="M188.1,143.3
			c-0.3,0.2-0.5,0.4-0.9,0.5l-4-1.6c-0.1-0.3-0.3-0.7-0.4-1.1c-0.1-0.4,0.1-0.7,0.2-1.2c0.3-0.7,0.7-1,1.3-1.2
			c0.7-0.1,1.4,0,2.4,0.3c1,0.3,1.6,0.9,2,1.4c0.4,0.5,0.4,1.2,0.1,1.8C188.5,142.7,188.4,143,188.1,143.3 M191,139.3
			c-0.6-1.1-1.8-2-3.4-2.7c-1.1-0.4-2-0.6-2.9-0.5c-0.9,0-1.7,0.3-2.4,0.7c-0.6,0.4-1.1,1.1-1.5,1.9c-0.1,0.4-0.3,0.9-0.2,1.3
			c0.1,0.4,0.1,0.9,0.4,1.3l-4.9-1.9l0.2,2.9l13,5.2l1-2.4l-0.8-0.3c0.5-0.2,0.9-0.3,1.1-0.6c0.3-0.2,0.5-0.6,0.7-1
			C191.7,141.7,191.7,140.4,191,139.3 M177.2,151.6c-0.1-0.6,0-1.1,0.3-1.7c0.2-0.3,0.5-0.7,0.9-0.9c0.3-0.1,0.7-0.2,1.1-0.2
			c0.4,0,0.7,0.2,1.2,0.4l-2.4,3.8C177.7,152.8,177.4,152.2,177.2,151.6 M186.1,152.5c0.1-0.7,0-1.4-0.2-2.1l-2.2,0.5
			c0.2,0.5,0.2,1,0.1,1.3c0,0.4-0.2,0.8-0.5,1.3c-0.2,0.4-0.6,0.7-0.9,0.9c-0.4,0.2-0.8,0.3-1.2,0.3c-0.4,0-0.8-0.2-1.3-0.4l3.7-6
			c-0.2-0.2-0.5-0.3-0.7-0.5c-0.2-0.2-0.4-0.2-0.6-0.3c-1-0.6-1.9-0.9-2.8-1c-0.8-0.1-1.6,0.2-2.3,0.6c-0.6,0.4-1.3,1-1.7,1.7
			c-0.6,0.9-0.8,1.8-0.8,2.6c0,0.9,0.3,1.7,0.7,2.5c0.5,0.8,1.3,1.5,2.3,2.1s1.9,0.9,2.8,1.1c0.9,0.1,1.8-0.1,2.6-0.4
			c0.7-0.4,1.5-1,2-1.9C185.7,154,186,153.2,186.1,152.5 M170.5,153.9c-0.1-0.4-0.2-0.8-0.6-1c-0.3-0.2-0.8-0.4-1.2-0.3
			c-0.4,0.1-0.8,0.2-1,0.6c-0.2,0.3-0.4,0.8-0.3,1.2c0.1,0.4,0.2,0.8,0.6,1s0.7,0.4,1.2,0.3c0.4-0.1,0.8-0.2,1-0.6
			C170.5,154.7,170.6,154.3,170.5,153.9 M180.6,161.3l-8.6-6.5l-1.6,2.1l8.6,6.5L180.6,161.3z M175,168.3l-4.3-4
			c-0.4-0.3-0.7-0.7-0.9-1.1c-0.2-0.4-0.2-0.8-0.2-1.1c0-0.4,0.2-0.7,0.5-1c0.3-0.2,0.4-0.5,0.7-0.5c0.3-0.1,0.6-0.2,1-0.3l-1.5-1.9
			c-0.7,0-1.4,0.3-1.9,0.9c-0.3,0.4-0.5,0.8-0.6,1.2c-0.1,0.5-0.1,0.9,0.1,1.4l-0.8-0.8l-1.8,1.9l7.9,7.2L175,168.3z M170.9,172.7
			c0.2-0.3,0.4-0.7,0.5-1l-1.3-1.9c-0.2,0.6-0.5,1.1-1,1.5c-0.2,0.2-0.5,0.3-0.7,0.2c-0.2-0.1-0.4-0.1-0.7-0.4l-3.6-4l1.8-1.6
			l-1.5-1.7l-1.8,1.6l-3-3.3l-1.1,2.7l2.1,2.4l-1.2,1l1.5,1.7l1.2-1l3.9,4.3c0.6,0.7,1.3,1.1,1.9,1.1c0.6,0.1,1.3-0.2,1.9-0.7
			C170.4,173.4,170.7,173.1,170.9,172.7 M155.5,174.7c0.1-0.5,0.4-1,0.9-1.4c0.4-0.3,0.7-0.4,1-0.5c0.4-0.1,0.7,0,1.1,0.2
			c0.3,0.1,0.7,0.4,0.9,0.8l-3.6,2.7C155.5,175.8,155.4,175.2,155.5,174.7 M163.4,178.8c0.3-0.7,0.5-1.3,0.6-2l-2.2-0.4
			c0,0.5-0.2,0.9-0.4,1.3c-0.2,0.3-0.5,0.7-1,1c-0.4,0.3-0.7,0.4-1.1,0.5c-0.4,0.1-0.8,0-1.2-0.2c-0.3-0.1-0.7-0.5-1-0.8l5.6-4.2
			c-0.1-0.2-0.3-0.5-0.4-0.6s-0.3-0.4-0.4-0.5c-0.7-0.9-1.5-1.6-2.2-2c-0.8-0.4-1.6-0.4-2.4-0.3c-0.8,0.1-1.5,0.5-2.3,1
			c-0.8,0.6-1.4,1.3-1.7,2.1c-0.4,0.8-0.4,1.7-0.3,2.6s0.6,1.8,1.3,2.7c0.7,0.9,1.5,1.6,2.3,2.1c0.8,0.5,1.7,0.6,2.5,0.6
			c0.9,0,1.8-0.4,2.6-1C162.6,179.9,163.1,179.4,163.4,178.8 M148.7,185.5c-0.3-0.1-0.7-0.1-1.1-0.2l-2-3.8c0.1-0.3,0.2-0.6,0.4-1
			c0.2-0.3,0.5-0.6,0.9-0.8c0.7-0.3,1.3-0.4,1.8-0.1c0.6,0.3,1.1,0.8,1.6,1.8s0.7,1.6,0.6,2.3c-0.1,0.6-0.4,1.2-1.1,1.5
			C149.4,185.3,149,185.4,148.7,185.5 M153.5,184.3c0.2-1.2,0-2.6-0.9-4.2c-0.6-1-1.2-1.7-1.9-2.3s-1.5-0.9-2.3-1
			c-0.8-0.1-1.6,0.1-2.4,0.5c-0.5,0.3-0.7,0.5-1.1,0.9c-0.2,0.3-0.5,0.8-0.5,1.2l-2.5-4.7l-1.8,2.3l6.6,12.3l2.3-1.2l-0.4-0.7
			c0.4,0.2,0.9,0.3,1.3,0.3c0.4,0,0.8-0.1,1.3-0.4C152.5,186.6,153.3,185.5,153.5,184.3 M137,193l-2-5.5c-0.3-0.9-0.3-1.5-0.1-2
			c0.2-0.5,0.6-0.9,1.2-1.1c0.7-0.2,1.2-0.2,1.6,0.1c0.5,0.3,0.8,0.9,1.1,1.6l2,5.5l2.5-0.9l-2.2-6.3c-0.3-0.9-0.7-1.5-1.1-2
			c-0.5-0.5-1-0.8-1.7-0.9c-0.6-0.1-1.3-0.1-2.1,0.2c-0.6,0.2-1,0.5-1.5,0.8c-0.3,0.4-0.7,0.8-0.8,1.3l-1.9-5.2l-2.1,2.1l4.7,13.1
			L137,193z M129.4,194.5c0.6-0.7,1-1.6,1.1-2.7l-2.6-0.3c0,0.5-0.3,1-0.5,1.3s-0.6,0.5-1.1,0.6c-0.7,0.1-1.2,0-1.7-0.5
			c-0.5-0.4-0.8-1.2-1-2.1c-0.2-1-0.2-1.7,0.1-2.4c0.3-0.7,0.7-1,1.4-1.1c0.4-0.1,0.8,0,1.1,0.1s0.7,0.5,1,0.9l2.3-1.3
			c-0.6-0.9-1.2-1.5-2-1.9c-0.9-0.4-1.8-0.4-2.9-0.2c-1,0.2-1.7,0.6-2.4,1.2c-0.6,0.6-1.1,1.3-1.3,2.2c-0.3,1-0.2,2,0,3
			c0.2,1.2,0.6,2,1.2,2.8c0.5,0.7,1.2,1.3,2,1.6c0.8,0.3,1.7,0.3,2.7,0.2C127.9,195.6,128.7,195.2,129.4,194.5 M112.2,194.9
			c-0.3-0.2-0.5-0.5-0.6-0.9c0-0.4,0.2-0.8,0.5-1.1c0.4-0.3,0.8-0.4,1.5-0.5c0.4-0.1,0.7,0,1.1,0.1c0.4,0,0.7,0.2,1.1,0.3l0,1.3
			c-0.3,0.4-0.6,0.6-1.1,0.8c-0.4,0.2-0.8,0.3-1.3,0.3C113.1,195.2,112.6,195.1,112.2,194.9 M114.7,197.1c0.5-0.2,0.9-0.5,1.3-0.9
			l0,0.9l2.5-0.1l-0.3-6.9c0-1.3-0.5-2.4-1.2-3c-0.7-0.7-1.9-0.9-3.3-0.9c-0.8,0-1.5,0.1-2.3,0.5c-0.8,0.2-1.4,0.6-2.1,1l0.8,2
			c0.5-0.4,1.1-0.7,1.7-0.9c0.6-0.2,1.1-0.3,1.6-0.4c0.7,0,1.1,0.1,1.5,0.4c0.3,0.2,0.5,0.7,0.5,1.3l0,0.7c-0.3-0.1-0.8-0.3-1.2-0.3
			c-0.4,0-0.9-0.1-1.3-0.1c-0.8,0-1.6,0.3-2.2,0.6c-0.7,0.3-1.1,0.8-1.4,1.2c-0.3,0.6-0.5,1.2-0.4,1.9c0.1,1.1,0.4,2,1.1,2.6
			s1.7,0.8,2.8,0.9C113.8,197.4,114.2,197.3,114.7,197.1 M105.2,197.1l0.6-8.4l2.4,0.1l0.1-2.3l-2.4-0.1l0.1-1.1
			c0.1-0.3,0.1-0.4,0.2-0.5c0.2-0.1,0.4-0.2,0.6-0.2c0.2,0,0.4,0,0.7,0.2c0.3,0.1,0.5,0.2,0.8,0.4l0.2-2.2c-0.3-0.1-0.7-0.4-1.1-0.4
			c-0.3-0.1-0.8-0.2-1.2-0.2c-0.8-0.1-1.5,0.1-1.9,0.5c-0.4,0.4-0.7,1-0.8,1.9l-0.1,1.6l-1.5-0.1l-0.1,2.3l1.5,0.1l-0.6,8.4
			L105.2,197.1z M91.4,198.3l2.4-12.7c0.2-0.9,0.5-1.7,0.9-2c0.4-0.4,0.9-0.5,1.6-0.4c0.5,0.1,1,0.3,1.1,0.7
			c0.2,0.4,0.3,0.9,0.2,1.3c-0.1,0.5-0.3,1-0.7,1.2c-0.4,0.3-0.9,0.3-1.3,0.3l-0.7-0.1l-0.5,2.2l0.7,0.1c0.6,0.1,1.1,0.3,1.3,0.6
			c0.4,0.3,0.5,0.6,0.6,1c0.1,0.4,0.1,0.8,0,1.2c-0.1,0.5-0.3,1-0.5,1.2c-0.2,0.3-0.5,0.6-0.9,0.7c-0.3,0.1-0.7,0.2-1,0.2
			c-0.2-0.1-0.3-0.1-0.4-0.1c-0.1-0.1-0.2-0.1-0.4-0.1l-1.5,1.7c0.2,0.2,0.5,0.3,0.8,0.5c0.3,0.1,0.8,0.3,1.3,0.4
			c0.8,0.2,1.5,0.2,2.3-0.2c0.7-0.2,1.3-0.6,1.8-1.3c0.5-0.6,0.9-1.5,1-2.4c0.1-0.6,0.1-1.1-0.1-1.6c-0.1-0.5-0.4-1-0.7-1.4
			c-0.4-0.4-0.7-0.8-1.3-1c0.5-0.1,0.9-0.2,1.2-0.5s0.6-0.5,0.9-0.9s0.4-0.8,0.4-1.2c0.2-0.7,0.1-1.4-0.1-2.1
			c-0.3-0.7-0.7-1.2-1.3-1.6s-1.3-0.7-2.2-0.9c-0.7-0.2-1.5-0.2-2.3,0.1c-0.8,0.2-1.4,0.6-2,1.2s-1,1.6-1.2,2.8l-2.6,13.8
			L91.4,198.3z M89.4,181.8c0.4-0.2,0.6-0.5,0.8-0.9c0.1-0.4,0.1-0.8-0.1-1.2c-0.2-0.4-0.5-0.6-0.9-0.8s-0.8-0.1-1.2,0.1
			c-0.4,0.2-0.6,0.5-0.8,0.9c-0.1,0.4-0.1,0.8,0.1,1.2c0.2,0.4,0.5,0.6,0.9,0.8C88.7,182.2,89.1,182.1,89.4,181.8 M86,193.9l3-10.3
			l-2.5-0.7l-3,10.3L86,193.9z M78,182.4c0.6-0.2,1.1-0.2,1.6,0.1c0.4,0.1,0.7,0.4,0.9,0.7c0.2,0.3,0.3,0.7,0.4,1.1
			c0.1,0.4-0.1,0.8-0.2,1.2l-4.1-1.8C76.9,183,77.4,182.5,78,182.4 M78.4,191.1c0.7,0,1.4-0.2,2-0.5l-0.7-2
			c-0.5,0.2-0.9,0.3-1.3,0.3c-0.4,0-0.8-0.1-1.4-0.3c-0.4-0.2-0.8-0.5-1-0.7c-0.3-0.4-0.4-0.6-0.4-1.2c-0.1-0.4,0.1-0.8,0.2-1.3
			l6.4,2.8c0.2-0.2,0.2-0.4,0.4-0.7c0.1-0.2,0.2-0.4,0.3-0.7c0.4-1.1,0.7-2,0.5-2.9c0-0.9-0.4-1.6-0.9-2.2s-1.2-1.1-2-1.4
			c-1-0.3-1.8-0.5-2.7-0.5c-0.9,0.1-1.6,0.5-2.4,1.1c-0.7,0.6-1.3,1.4-1.7,2.5c-0.4,1.1-0.7,2-0.6,2.9c0,0.9,0.3,1.8,0.8,2.5
			c0.5,0.7,1.2,1.3,2.2,1.7C76.9,191.1,77.6,191.3,78.4,191.1 M61.6,182.7l4.2-3.7c0.2-0.1,0.3-0.4,0.6-0.5c0.3-0.2,0.4-0.5,0.6-0.6
			c-0.1,0.2-0.2,0.5-0.3,0.9c-0.1,0.3-0.2,0.5-0.3,0.8l-1.8,5.3l1.9,1.3l8.3-7.3l-2.1-1.4l-4,3.8c-0.2,0.1-0.3,0.4-0.5,0.5
			c-0.2,0.2-0.3,0.4-0.5,0.6c0.1-0.2,0.1-0.4,0.3-0.8c0.1-0.2,0.1-0.5,0.2-0.6l1.8-5.3l-1.9-1.2l-4.2,3.7c-0.2,0.1-0.4,0.3-0.5,0.5
			c-0.2,0.2-0.3,0.4-0.5,0.5c0.1-0.2,0.2-0.4,0.3-0.7c0.1-0.2,0.2-0.4,0.2-0.6l1.8-5.2l-2.1-1.4l-3.3,10.6L61.6,182.7z M49.9,173.4
			l4-4.4c0.6-0.6,1.2-1,1.6-1.1c0.5-0.1,1,0.1,1.6,0.6c0.5,0.4,0.8,1,0.7,1.5c-0.1,0.5-0.4,1.1-1,1.8l-4,4.3l1.9,1.8l4.6-4.9
			c0.6-0.6,1-1.3,1.2-1.9c0.2-0.6,0.3-1.4,0.1-1.9c-0.2-0.7-0.6-1.2-1.2-1.8c-0.5-0.4-0.9-0.7-1.5-0.9c-0.5-0.1-1.1-0.2-1.5-0.2
			l3.7-4l-2.8-0.9l-9.5,10.3L49.9,173.4z M44.9,167.5c1,0.3,1.8,0.1,3-0.4l-1-2.4c-0.5,0.2-1,0.3-1.4,0.1c-0.4-0.1-0.8-0.3-1-0.6
			c-0.4-0.5-0.6-1.1-0.4-1.8c0.2-0.6,0.6-1.3,1.4-1.9c0.7-0.6,1.5-0.9,2.2-1c0.7,0,1.2,0.2,1.6,0.7c0.3,0.4,0.4,0.6,0.4,1.1
			c0.1,0.4-0.1,0.8-0.3,1.3l2.2,1.4c0.6-0.9,0.8-1.8,0.8-2.7c0-0.9-0.5-1.7-1.1-2.7c-0.6-0.8-1.3-1.3-2.2-1.6s-1.7-0.3-2.5-0.1
			c-0.9,0.2-1.8,0.7-2.7,1.5c-0.9,0.8-1.6,1.5-1.9,2.3s-0.5,1.7-0.4,2.5c0.1,0.8,0.5,1.6,1.1,2.5C43.2,166.8,44,167.4,44.9,167.5
			 M37,157.7c0.7,0.5,1.4,0.8,2.3,0.8c0.8,0.1,1.6-0.2,2.4-0.6c0.6-0.4,1.2-0.9,1.4-1.3c0.3-0.6,0.5-1.1,0.5-1.6
			c0.1-0.6,0-1.2,0-1.8c-0.1-0.6-0.2-1.2-0.3-1.9c-0.1-0.5-0.2-1-0.2-1.5c-0.1-0.4,0-0.8,0-1.1c0.1-0.3,0.2-0.5,0.5-0.7
			c0.4-0.3,0.8-0.2,1.2-0.1c0.4,0.1,0.8,0.6,1.1,1.1c0.4,0.5,0.5,1.1,0.5,1.6c0,0.5-0.3,1-0.5,1.3l2,1.7c0.4-0.5,0.7-1,0.9-1.7
			c0.2-0.6,0.3-1.3,0.2-2.1c-0.1-0.7-0.3-1.5-0.8-2.2c-0.6-0.9-1.2-1.5-1.9-2c-0.7-0.4-1.4-0.7-2.1-0.7c-0.7,0-1.4,0.1-2,0.5
			c-0.6,0.4-1.1,0.8-1.3,1.3c-0.3,0.5-0.4,1-0.4,1.6c0,0.5,0,1.1,0.1,1.7c0.1,0.6,0.2,1.2,0.3,1.7c0.1,0.6,0.2,1.1,0.3,1.6
			c0.1,0.5,0,0.9-0.1,1.2c-0.1,0.3-0.3,0.7-0.7,0.8c-0.6,0.3-1.1,0.4-1.5,0.1c-0.5-0.2-0.9-0.7-1.3-1.3c-0.4-0.6-0.5-1.2-0.4-2
			c0.1-0.7,0.3-1.4,0.8-2l-2.1-1.7c-0.6,0.6-1,1.4-1.2,2.1c-0.3,0.8-0.3,1.6-0.2,2.4c0.1,0.8,0.4,1.6,0.9,2.4
			C35.6,156.5,36.2,157.2,37,157.7"/>
	</g>
	<g>
		<defs>
			
				<rect id="SVGID_00000089556306896635432440000004437589771006671274_" x="3.4" y="3.2" transform="matrix(0.9969 -7.818535e-02 7.818535e-02 0.9969 -8.2466 8.9331)" width="213.2" height="213.2"/>
		</defs>
		<clipPath id="SVGID_00000049213623216482553820000006981123981729050784_">
			<use xlink:href="#SVGID_00000089556306896635432440000004437589771006671274_"  style="overflow:visible;"/>
		</clipPath>
		<path style="clip-path:url(#SVGID_00000049213623216482553820000006981123981729050784_);fill:#565655;" d="M164.2,122.9
			c0.6-0.3,0.9-0.7,1.2-1.2c0.2-0.4,0.3-1,0.4-1.6c0-0.6-0.3-1.1-0.6-1.5c-0.3-0.5-0.7-0.7-1.3-0.9c0.4-0.3,0.7-0.6,0.8-1
			c0.2-0.4,0.3-0.9,0.2-1.3c-0.1-0.6-0.2-1.1-0.6-1.5c-0.3-0.5-0.7-0.7-1.3-0.9c-0.5-0.2-1.1-0.3-1.8-0.2c-0.7,0-1.4,0.3-1.9,0.7
			c-0.5,0.4-1,1-1.2,1.7l1.8,0.5c0.1-0.3,0.4-0.7,0.6-0.8c0.3-0.2,0.6-0.3,0.9-0.3c0.4-0.1,0.7,0.1,1,0.3c0.2,0.3,0.4,0.5,0.5,0.9
			c0.1,0.4-0.1,0.7-0.3,1c-0.3,0.2-0.5,0.4-0.9,0.5l-1,0.1l0.1,1.8l1-0.1c0.5-0.1,0.9,0.1,1.3,0.3c0.3,0.2,0.5,0.5,0.6,0.9
			c0.1,0.4-0.1,0.8-0.3,1.1c-0.3,0.2-0.6,0.4-1.1,0.5c-0.9,0-1.6-0.4-2.1-1.2l-1.6,0.9c0.3,0.8,0.9,1.4,1.6,1.7
			c0.7,0.4,1.4,0.6,2.3,0.4C163.1,123.4,163.8,123.3,164.2,122.9 M155.6,123.7c0.5-0.3,0.8-0.5,1.2-1c0.3-0.5,0.6-0.9,0.8-1.3
			l-1.8-0.5c-0.2,0.4-0.5,0.8-0.7,1c-0.3,0.2-0.6,0.4-1.1,0.5c-0.4,0.1-0.8-0.1-1.2-0.2c-0.3-0.1-0.6-0.4-0.8-0.8
			c-0.3-0.4-0.4-0.7-0.5-1.1c-0.2-0.4-0.2-0.9-0.2-1.3c-0.1-0.4,0-0.8,0-1.2c0-0.4,0.2-0.8,0.3-1.2c0.1-0.3,0.4-0.7,0.7-0.9
			c0.3-0.2,0.6-0.4,1.2-0.4c0.3,0,0.6,0,0.8,0.1s0.4,0.2,0.7,0.4c0.2,0.2,0.4,0.3,0.6,0.6l1.7-1c-0.2-0.4-0.5-0.7-0.8-1.1
			c-0.4-0.3-0.8-0.6-1.2-0.8c-0.5-0.2-1.1-0.2-1.8-0.2c-0.8,0-1.5,0.2-2,0.6c-0.5,0.4-1,0.9-1.3,1.4c-0.3,0.6-0.5,1.2-0.6,1.8
			c-0.1,0.6-0.1,1.2-0.1,1.9c0,0.7,0.2,1.3,0.4,2c0.2,0.7,0.5,1.2,0.9,1.7c0.4,0.4,0.9,0.9,1.4,1.2c0.6,0.3,1.3,0.4,2.1,0.3
			C154.6,124.1,155.2,124,155.6,123.7 M142.4,124.9l1.9-3.8l2.5,3.4l2.3-0.2l-3.8-5.2l2.8-5.3l-2.2,0.2l-1.8,3.4l-2.3-3.1l-2.3,0.2
			l3.5,4.8l-2.9,5.6L142.4,124.9z M139,125.1l-0.1-1.9l-5.4,0.4l-0.2-2.6l3-0.2l-0.1-1.8l-3,0.2l-0.2-2.3l5.1-0.4l-0.1-1.8l-7.1,0.5
			l0.8,10.5L139,125.1z M126.3,126.2l-0.1-1.9l-4.9,0.4c0.1-0.3,0.2-0.6,0.4-0.9c0.2-0.2,0.4-0.5,0.7-0.7c0.3-0.2,0.6-0.5,1.1-0.8
			s0.8-0.6,1.2-0.9c0.3-0.4,0.6-0.7,0.8-1.1s0.3-1,0.3-1.6c-0.1-0.6-0.2-1.1-0.6-1.5c-0.3-0.5-0.7-0.8-1.3-1
			c-0.5-0.2-1.2-0.3-1.9-0.3c-0.8,0-1.5,0.3-2.1,0.7c-0.6,0.5-1,1.1-1.2,1.7l1.8,0.6c0.1-0.4,0.4-0.8,0.7-0.9
			c0.3-0.2,0.6-0.4,1.2-0.4c0.4-0.1,0.8,0.1,1.1,0.2c0.2,0.3,0.4,0.5,0.5,0.9c0,0.3,0,0.5-0.2,0.8c-0.2,0.2-0.3,0.5-0.6,0.7
			c-0.3,0.2-0.4,0.4-0.7,0.5c-0.5,0.3-0.9,0.7-1.3,1c-0.4,0.4-0.8,0.8-1,1.3c-0.3,0.5-0.5,1-0.6,1.6c-0.1,0.6-0.2,1.2-0.1,2
			L126.3,126.2z M116.8,121.6l-3.9,0.3l0.2,1.8l3.9-0.3L116.8,121.6z M106.5,125.8c-0.2-0.2-0.5-0.4-0.6-0.8
			c-0.2-0.4-0.3-0.7-0.4-1.2c-0.1-0.4-0.1-0.9-0.2-1.3s0-0.9,0-1.3c0-0.4,0.1-0.8,0.2-1.2c0.1-0.3,0.3-0.7,0.6-0.9
			c0.3-0.2,0.5-0.4,1-0.4c0.4-0.1,0.7,0.1,1,0.3c0.2,0.2,0.5,0.4,0.6,0.8s0.3,0.8,0.4,1.2c0.1,0.4,0.1,0.9,0.2,1.3
			c0.1,0.4,0,0.9,0,1.3c0,0.4-0.1,0.8-0.2,1.2c-0.1,0.3-0.3,0.7-0.5,0.9c-0.3,0.2-0.5,0.4-0.9,0.3
			C107.1,126.1,106.8,125.9,106.5,125.8 M109.1,127.4c0.5-0.3,0.7-0.5,1.1-1c0.2-0.3,0.5-0.8,0.6-1.3c0.1-0.4,0.3-1,0.3-1.5
			s0-1,0-1.5c0-0.7-0.2-1.3-0.3-2c-0.2-0.7-0.4-1.2-0.8-1.7c-0.3-0.5-0.8-0.9-1.3-1.2s-1.2-0.4-1.9-0.3c-0.6,0-1.1,0.2-1.5,0.5
			c-0.5,0.3-0.7,0.5-1.1,1c-0.2,0.3-0.5,0.8-0.6,1.3c-0.1,0.4-0.3,1-0.3,1.5c0,0.5,0,1,0,1.5c0,0.6,0.2,1.3,0.3,1.9
			c0.2,0.6,0.4,1.2,0.8,1.7c0.3,0.6,0.8,0.9,1.3,1.2c0.6,0.3,1.2,0.4,1.9,0.3C108.2,127.8,108.7,127.6,109.1,127.4 M96.8,122.6
			c-0.3-0.1-0.6-0.3-0.7-0.5c-0.1-0.3-0.3-0.5-0.2-0.9c0-0.3,0-0.6,0.2-0.8s0.3-0.5,0.6-0.6c0.3-0.1,0.6-0.3,1-0.3
			c0.3,0,0.6,0,0.9,0.2c0.2,0.2,0.5,0.3,0.7,0.5c0.1,0.3,0.3,0.5,0.3,0.8c0,0.3,0,0.6-0.2,0.8s-0.3,0.5-0.6,0.6
			c-0.3,0.1-0.6,0.2-0.9,0.2C97.3,122.7,97,122.6,96.8,122.6 M99.3,127.4c0.8-0.6,1.4-1.4,1.8-2.5c0.3-1.1,0.5-2.2,0.3-3.5
			c0-0.8-0.2-1.5-0.5-2c-0.3-0.6-0.8-1-1.3-1.3c-0.6-0.3-1.3-0.4-2.2-0.4c-0.7,0-1.4,0.2-1.9,0.6c-0.6,0.3-1,0.8-1.2,1.3
			c-0.3,0.6-0.4,1.2-0.3,1.8c0,0.7,0.2,1.3,0.6,1.7s0.7,0.8,1.3,1.1c0.5,0.2,1.2,0.3,1.9,0.3c0.4-0.1,0.8-0.1,1.1-0.3
			c0.3-0.1,0.6-0.3,0.7-0.5c-0.1,0.6-0.3,1.2-0.7,1.6c-0.3,0.5-0.8,0.8-1.3,1c-0.5,0.3-0.9,0.5-1.5,0.6l0.2,1.8
			C97.5,128.6,98.5,128.1,99.3,127.4 M88,127.3c-0.2-0.2-0.5-0.4-0.6-0.8c-0.2-0.4-0.3-0.7-0.4-1.2c-0.1-0.4-0.1-0.9-0.2-1.3
			s0-0.9,0-1.3c0-0.4,0.1-0.8,0.2-1.2c0.1-0.3,0.3-0.7,0.6-0.9c0.3-0.2,0.5-0.4,1-0.4c0.4-0.1,0.7,0.1,1,0.3
			c0.2,0.2,0.5,0.4,0.6,0.8s0.3,0.8,0.4,1.2c0.1,0.4,0.1,0.9,0.2,1.3c0.1,0.4,0,0.9,0,1.3c0,0.4-0.1,0.8-0.2,1.2
			c-0.1,0.3-0.3,0.7-0.5,0.9c-0.3,0.2-0.5,0.4-0.9,0.3C88.9,127.4,88.3,127.4,88,127.3 M90.6,128.9c0.5-0.3,0.7-0.5,1.1-1
			c0.2-0.3,0.5-0.8,0.6-1.3c0.1-0.4,0.3-1,0.3-1.5s0-1,0-1.5c0-0.7-0.2-1.3-0.3-2c-0.2-0.7-0.4-1.2-0.8-1.7
			c-0.3-0.5-0.8-0.9-1.3-1.2s-1.2-0.4-1.9-0.3c-0.6,0-1.1,0.2-1.5,0.5c-0.5,0.3-0.7,0.5-1.1,1c-0.2,0.3-0.5,0.8-0.6,1.3
			c-0.1,0.4-0.3,1-0.3,1.5c0,0.5,0,1,0,1.5c0,0.6,0.2,1.3,0.3,1.9c0.2,0.6,0.4,1.2,0.8,1.7c0.3,0.6,0.8,0.9,1.3,1.2
			c0.6,0.3,1.2,0.4,1.9,0.3C89.7,129.2,90.3,129.1,90.6,128.9 M82.5,129.6l-0.8-10.5l-1.5,0.1c-0.1,0.3-0.2,0.5-0.4,0.7
			c-0.2,0.1-0.4,0.3-0.6,0.4c-0.3,0-0.6,0.2-0.9,0.1l0.1,1.5l1.6-0.2l0.6,7.8L82.5,129.6z M67.7,130.8l-0.5-6.2c0-0.1,0-0.2-0.1-0.4
			c0-0.1,0-0.3-0.1-0.4c0,0.1,0.1,0.3,0.3,0.4c0.1,0.2,0.1,0.3,0.3,0.4l4.7,5.9l1.7-0.2l-0.8-10.5l-1.9,0.1l0.5,6.2
			c0,0.1,0,0.2,0.1,0.4c0,0.2,0,0.3,0.1,0.4c0-0.1-0.1-0.3-0.3-0.4c-0.1-0.2-0.1-0.3-0.3-0.4l-4.6-5.8l-1.8,0.1l0.8,10.5L67.7,130.8
			z M64.2,131l-0.1-1.9l-5.4,0.4l-0.2-2.6l3-0.2l-0.1-1.8l-3,0.2l-0.2-2.3l5.1-0.4l-0.1-1.8l-7.1,0.5l0.7,10.5L64.2,131z"/>
	</g>
	<g>
		<defs>
			
				<rect id="SVGID_00000040571416539543986660000003704692309392230820_" x="3.4" y="3.2" transform="matrix(0.9969 -7.818535e-02 7.818535e-02 0.9969 -8.2466 8.9331)" width="213.2" height="213.2"/>
		</defs>
		<clipPath id="SVGID_00000015354880968862223020000010645552756162967178_">
			<use xlink:href="#SVGID_00000040571416539543986660000003704692309392230820_"  style="overflow:visible;"/>
		</clipPath>
		<path style="clip-path:url(#SVGID_00000015354880968862223020000010645552756162967178_);fill:#565655;" d="M161.2,105.4l-0.3-4.2
			c0-0.6,0-1.1,0.3-1.4c0.2-0.3,0.6-0.5,1.1-0.6c0.5-0.1,0.8,0.1,1.1,0.3s0.4,0.7,0.4,1.3l0.4,4.2l1.9-0.1l-0.4-4.8
			c0-0.6-0.2-1.2-0.5-1.6c-0.3-0.5-0.5-0.7-1-1c-0.4-0.2-1-0.3-1.5-0.3c-0.4,0.1-0.8,0.1-1.2,0.3c-0.4,0.2-0.6,0.4-0.8,0.7l-0.3-3.9
			l-1.8,1l0.8,9.9L161.2,105.4z M156.5,105.4c0.5-0.5,0.8-1,1-1.9l-1.8-0.4c0,0.4-0.2,0.6-0.5,0.9c-0.3,0.2-0.5,0.3-0.9,0.3
			c-0.5,0.1-0.8-0.2-1.2-0.5c-0.3-0.4-0.5-0.9-0.6-1.5c0-0.7,0-1.2,0.3-1.7c0.2-0.4,0.6-0.6,1.1-0.7c0.3,0,0.6,0,0.8,0.2
			s0.5,0.4,0.6,0.7l1.7-0.8c-0.3-0.7-0.7-1.2-1.3-1.5c-0.6-0.3-1.2-0.4-2-0.4c-0.7,0-1.3,0.3-1.8,0.6c-0.4,0.4-0.9,0.9-1.1,1.5
			c-0.2,0.6-0.3,1.4-0.3,2.2c0,0.8,0.2,1.5,0.6,2.1c0.3,0.6,0.8,1,1.3,1.3s1.2,0.4,1.9,0.3C155.4,106,156.1,105.7,156.5,105.4
			 M145,105c-0.2-0.2-0.4-0.3-0.4-0.6c0-0.3,0.1-0.5,0.4-0.8c0.3-0.2,0.7-0.3,1.1-0.4c0.3,0,0.5,0,0.8,0.1c0.3,0.1,0.5,0.1,0.7,0.2
			l0,0.9c-0.2,0.2-0.4,0.5-0.7,0.6c-0.3,0.1-0.6,0.2-0.9,0.2C145.5,105.2,145.2,105.2,145,105 M146.9,106.5c0.4-0.2,0.6-0.4,0.9-0.7
			l0,0.6l1.8-0.1l-0.4-4.9c-0.1-1-0.4-1.7-0.9-2.1c-0.6-0.4-1.3-0.6-2.3-0.5c-0.5,0.1-1.1,0.2-1.6,0.4c-0.6,0.2-1,0.5-1.4,0.7
			l0.6,1.4c0.4-0.3,0.7-0.5,1.1-0.7c0.4-0.2,0.8-0.2,1.2-0.3c0.5-0.1,0.8,0.1,1.1,0.2c0.2,0.2,0.4,0.5,0.5,0.9l0.1,0.5
			c-0.2-0.1-0.5-0.1-0.8-0.2c-0.3-0.1-0.6,0-1,0c-0.6,0-1.1,0.2-1.5,0.5s-0.7,0.5-1,1c-0.2,0.4-0.3,0.9-0.3,1.4
			c0,0.8,0.3,1.4,0.9,1.8c0.5,0.4,1.2,0.6,2,0.5C146.1,106.7,146.5,106.7,146.9,106.5 M136.7,107.3l-0.3-4.2c0-0.6,0-1.1,0.3-1.4
			c0.2-0.3,0.6-0.5,1.1-0.6c0.5-0.1,0.8,0.1,1.1,0.3c0.2,0.3,0.4,0.7,0.4,1.3l0.4,4.2l1.9-0.1l-0.4-4.8c-0.1-1-0.4-1.8-0.9-2.2
			c-0.5-0.5-1.2-0.7-2-0.7c-0.4,0.1-0.8,0.1-1.2,0.3c-0.4,0.2-0.6,0.4-0.8,0.7l0-0.7l-1.9,0.1l0.6,7.6L136.7,107.3z M129.5,107.8
			l-0.1-1.9l-4.9,0.4c0.1-0.3,0.2-0.6,0.4-0.9c0.2-0.2,0.4-0.5,0.7-0.7c0.3-0.2,0.6-0.5,1.1-0.8s0.8-0.6,1.2-0.9
			c0.3-0.4,0.6-0.7,0.8-1.1c0.2-0.4,0.3-1,0.3-1.6c-0.1-0.6-0.2-1.1-0.6-1.5c-0.3-0.5-0.7-0.8-1.3-1c-0.5-0.2-1.2-0.3-1.9-0.3
			c-0.8,0-1.5,0.3-2.1,0.7c-0.6,0.5-1,1.1-1.2,1.7l1.8,0.6c0.1-0.4,0.4-0.8,0.7-0.9c0.3-0.2,0.6-0.4,1.2-0.4
			c0.4-0.1,0.8,0.1,1.1,0.2c0.2,0.3,0.4,0.5,0.5,0.9c0,0.3,0,0.5-0.2,0.8c-0.2,0.2-0.3,0.5-0.6,0.7c-0.3,0.2-0.4,0.4-0.7,0.5
			c-0.5,0.3-0.9,0.7-1.3,1c-0.4,0.4-0.8,0.8-1,1.3s-0.5,1-0.6,1.6c-0.1,0.6-0.2,1.2-0.1,2L129.5,107.8z M120.1,103.3l-3.9,0.3
			l0.2,1.8l3.9-0.3L120.1,103.3z M111.2,101.5l0.3,3.8l-2.8,0.3L111.2,101.5z M113.6,109.1l-0.2-2.2l1.3-0.1l-0.2-1.8l-1.3,0.1
			l-0.6-6.5l-1.9,0.1l-4.9,7.5l0.1,1.2l5.3-0.5l0.2,2.2L113.6,109.1z M103.8,109.7c0.6-0.3,0.9-0.7,1.2-1.2c0.2-0.4,0.3-1,0.4-1.6
			c-0.1-0.6-0.3-1.1-0.6-1.5c-0.4-0.4-0.7-0.7-1.3-0.9c0.4-0.3,0.7-0.6,0.8-1c0.2-0.4,0.3-0.9,0.2-1.3c-0.1-0.6-0.2-1.1-0.6-1.5
			c-0.3-0.5-0.7-0.7-1.3-0.9c-0.5-0.2-1.1-0.3-1.8-0.2c-0.7,0-1.4,0.3-1.9,0.7c-0.5,0.4-1,1-1.2,1.7l1.8,0.5
			c0.1-0.3,0.4-0.7,0.6-0.8c0.3-0.2,0.6-0.3,0.9-0.3c0.4-0.1,0.7,0.1,1,0.3c0.2,0.3,0.4,0.5,0.5,0.9c0.1,0.4-0.1,0.7-0.3,1
			c-0.3,0.2-0.5,0.4-0.9,0.5l-1,0.1l0.1,1.8l1-0.1c0.5-0.1,0.9,0.1,1.3,0.3c0.3,0.2,0.5,0.5,0.6,0.9c0.1,0.4-0.1,0.8-0.3,1.1
			c-0.3,0.2-0.6,0.4-1.1,0.5c-0.9,0-1.6-0.4-2.1-1.2l-1.7,0.9c0.3,0.8,0.9,1.4,1.6,1.7c0.7,0.4,1.4,0.6,2.3,0.4
			C102.7,110.2,103.3,110,103.8,109.7 M91.5,103.9c-0.2-0.2-0.4-0.4-0.4-0.8c-0.1-0.4,0.1-0.6,0.3-0.9c0.3-0.2,0.5-0.4,0.9-0.5
			c0.4-0.1,0.7,0.1,1.1,0.2c0.2,0.2,0.4,0.4,0.4,0.8c0,0.3-0.1,0.6-0.4,0.9c-0.3,0.2-0.5,0.4-0.9,0.5
			C92.2,104.2,91.8,104.2,91.5,103.9 M92.1,109.1c-0.3-0.1-0.6-0.3-0.7-0.5c-0.1-0.3-0.3-0.6-0.3-0.9c0-0.3,0-0.6,0.2-0.8
			s0.3-0.5,0.6-0.6s0.6-0.3,1-0.3c0.4-0.1,0.7,0,0.9,0.2c0.3,0.1,0.6,0.3,0.7,0.5c0.1,0.3,0.3,0.5,0.3,0.9c0,0.3,0,0.6-0.2,0.8
			c-0.2,0.2-0.3,0.5-0.6,0.6c-0.3,0.1-0.6,0.3-1,0.3C92.6,109.2,92.3,109.1,92.1,109.1 M95.1,110.3c0.6-0.3,1-0.8,1.2-1.3
			c0.2-0.5,0.3-1.1,0.3-1.8c-0.1-0.6-0.3-1.1-0.7-1.5s-0.8-0.8-1.4-0.9c0.2-0.1,0.5-0.3,0.6-0.5s0.3-0.5,0.5-0.8
			c0.1-0.3,0.1-0.6,0.2-0.9c-0.1-0.5-0.2-1-0.5-1.4c-0.3-0.4-0.7-0.7-1.3-0.9c-0.5-0.2-1.2-0.2-1.8-0.2c-0.7,0-1.3,0.2-1.7,0.5
			s-0.8,0.6-1,1.1c-0.2,0.4-0.3,1-0.3,1.5c0.1,0.4,0.1,0.7,0.3,1c0.1,0.3,0.3,0.5,0.5,0.7c0.2,0.2,0.5,0.3,0.7,0.4
			c-0.6,0.3-0.9,0.7-1.2,1.1c-0.3,0.5-0.4,1-0.4,1.6c0,0.7,0.3,1.2,0.6,1.7c0.4,0.4,0.8,0.8,1.4,1.1c0.5,0.2,1.3,0.3,2,0.3
			C93.9,110.8,94.6,110.7,95.1,110.3 M86,111.1c0.6-0.3,0.9-0.7,1.2-1.2c0.2-0.4,0.3-1,0.4-1.6c-0.1-0.6-0.3-1.1-0.6-1.5
			c-0.4-0.4-0.7-0.7-1.3-0.9c0.4-0.3,0.7-0.6,0.8-1c0.2-0.4,0.3-0.9,0.2-1.3c-0.1-0.6-0.2-1.1-0.6-1.5c-0.3-0.5-0.7-0.7-1.3-0.9
			c-0.5-0.2-1.1-0.3-1.8-0.2c-0.7,0-1.4,0.3-1.9,0.7c-0.5,0.4-1,1-1.2,1.7l1.8,0.5c0.1-0.3,0.4-0.7,0.6-0.8c0.3-0.2,0.6-0.3,0.9-0.3
			c0.4-0.1,0.7,0.1,1,0.3c0.2,0.3,0.4,0.5,0.5,0.9c0.1,0.4-0.1,0.7-0.3,1c-0.3,0.2-0.5,0.4-0.9,0.5l-1,0.1l0.1,1.8l1-0.1
			c0.5-0.1,0.9,0.1,1.3,0.3c0.3,0.2,0.5,0.5,0.6,0.9c0.1,0.4-0.1,0.8-0.3,1.1c-0.3,0.2-0.6,0.4-1.1,0.5c-0.9,0-1.6-0.4-2.1-1.2
			l-1.7,0.9c0.3,0.8,0.9,1.4,1.6,1.7c0.7,0.4,1.4,0.6,2.3,0.4C84.9,111.6,85.4,111.4,86,111.1 M69.8,110.6c-0.3-0.1-0.6-0.4-0.8-0.8
			c-0.3-0.4-0.4-0.7-0.5-1.1c-0.2-0.4-0.2-0.8-0.2-1.3c-0.1-0.4,0-0.8,0-1.2c0-0.4,0.2-0.8,0.3-1.2c0.1-0.3,0.4-0.7,0.8-0.9
			c0.3-0.2,0.7-0.4,1.2-0.4c0.5-0.1,0.9,0.1,1.2,0.2c0.3,0.1,0.6,0.4,0.8,0.8s0.4,0.7,0.5,1.1c0.2,0.4,0.2,0.9,0.2,1.3
			c0.1,0.4,0,0.8,0,1.2c0,0.4-0.2,0.8-0.3,1.2c-0.1,0.3-0.4,0.7-0.8,0.9c-0.3,0.2-0.7,0.4-1.2,0.4C70.6,110.8,70.1,110.7,69.8,110.6
			 M73.3,112c0.5-0.4,1-0.8,1.3-1.3c0.3-0.6,0.5-1.2,0.6-1.8c0.1-0.6,0.1-1.3,0.1-1.9c0-0.6-0.2-1.3-0.4-1.9
			c-0.2-0.7-0.5-1.2-0.9-1.7c-0.4-0.5-0.9-0.9-1.5-1.2c-0.7-0.3-1.3-0.4-2.2-0.4c-0.8,0-1.6,0.3-2.1,0.6c-0.5,0.4-1,0.8-1.3,1.3
			c-0.3,0.6-0.5,1.2-0.6,1.8c-0.1,0.6-0.2,1.3-0.1,1.9c0,0.6,0.2,1.3,0.4,1.9c0.2,0.7,0.5,1.2,0.9,1.7c0.4,0.5,0.9,0.9,1.5,1.2
			c0.7,0.3,1.4,0.4,2.2,0.4C72.1,112.5,72.7,112.3,73.3,112 M63.5,112.8c0.6-0.3,1-0.7,1.2-1.2c0.3-0.5,0.4-1.1,0.3-1.8
			c-0.1-0.5-0.2-1-0.4-1.3c-0.3-0.4-0.5-0.6-0.9-0.9c-0.3-0.2-0.8-0.4-1.2-0.5s-0.9-0.3-1.3-0.4s-0.7-0.2-1.1-0.3
			c-0.3-0.1-0.5-0.2-0.8-0.4c-0.2-0.2-0.3-0.4-0.3-0.6c0-0.3,0.1-0.6,0.3-0.8c0.3-0.2,0.6-0.3,1.1-0.4c0.5-0.1,0.9,0.1,1.2,0.2
			c0.3,0.1,0.6,0.4,0.7,0.7l1.7-0.7c-0.2-0.5-0.4-0.8-0.7-1.2c-0.4-0.3-0.7-0.6-1.2-0.7c-0.5-0.1-1.1-0.2-1.6-0.1
			c-0.7,0-1.4,0.2-1.8,0.5c-0.5,0.3-0.9,0.7-1.1,1.1c-0.2,0.4-0.3,1-0.3,1.5c0.1,0.5,0.2,1,0.4,1.3c0.3,0.4,0.5,0.6,0.8,0.8
			c0.3,0.2,0.7,0.4,1.1,0.5c0.4,0.1,0.8,0.3,1.2,0.3c0.4,0.1,0.7,0.2,1.1,0.3s0.6,0.3,0.8,0.5c0.2,0.2,0.3,0.5,0.3,0.8
			c0.1,0.4-0.1,0.7-0.4,1c-0.3,0.2-0.7,0.4-1.3,0.4c-0.5,0.1-0.9-0.1-1.4-0.4c-0.4-0.2-0.8-0.7-1-1.2l-1.7,0.8
			c0.2,0.6,0.6,1,0.9,1.5c0.4,0.4,0.9,0.7,1.5,0.9s1.2,0.2,1.9,0.2C62.3,113.3,62.9,113.1,63.5,112.8 M55.1,103.1l-1.9,0.2l0.8,10.5
			l1.9-0.1L55.1,103.1z"/>
	</g>
	<g>
		<defs>
			
				<rect id="SVGID_00000133513028612190942900000011756311063997670821_" x="3.4" y="3.2" transform="matrix(0.9969 -7.818535e-02 7.818535e-02 0.9969 -8.2466 8.9331)" width="213.2" height="213.2"/>
		</defs>
		<clipPath id="SVGID_00000183225114716862619700000006772217422721582265_">
			<use xlink:href="#SVGID_00000133513028612190942900000011756311063997670821_"  style="overflow:visible;"/>
		</clipPath>
		<path style="clip-path:url(#SVGID_00000183225114716862619700000006772217422721582265_);fill:#565655;" d="M124.8,90.1l-0.5-6.2
			c0-0.1,0-0.2-0.1-0.4c0-0.2,0-0.3-0.1-0.4c0,0.1,0.1,0.3,0.3,0.4c0.1,0.2,0.1,0.3,0.3,0.4l4.7,5.9l1.7-0.2l-0.8-10.5l-1.9,0.1
			l0.5,6.2c0,0.1,0,0.2,0.1,0.4c0,0.2,0,0.3,0.1,0.4c0-0.1-0.1-0.3-0.3-0.4c-0.1-0.2-0.1-0.3-0.3-0.4l-4.6-5.8l-1.8,0.1l0.8,10.5
			L124.8,90.1z M121.3,90.4l-0.1-1.9l-5.4,0.4l-0.2-2.6l3-0.2l-0.1-1.8l-3,0.2l-0.2-2.3l5.1-0.4l-0.1-1.8l-7.1,0.5L114,91
			L121.3,90.4z M102,91.9l-0.5-6.2c0-0.1,0-0.2-0.1-0.4c0-0.1,0-0.3-0.1-0.4c0,0.1,0.1,0.3,0.3,0.4c0.1,0.2,0.1,0.3,0.3,0.4l4.7,5.9
			l1.7-0.2l-0.8-10.5l-1.9,0.1l0.5,6.2c0,0.1,0,0.2,0.1,0.4c0,0.2,0,0.3,0.1,0.4c0-0.1-0.1-0.3-0.3-0.4c-0.1-0.2-0.1-0.3-0.3-0.4
			l-4.6-5.8l-1.8,0.1l0.8,10.5L102,91.9z M97.1,81.8L95.2,82L96,92.4l1.9-0.1L97.1,81.8z M87,84.5l1.9-0.1c0.5-0.1,0.9,0.1,1.2,0.2
			c0.3,0.1,0.7,0.4,0.9,0.8c0.2,0.3,0.4,0.6,0.6,1s0.2,0.8,0.3,1.2c0.1,0.4,0,0.8-0.1,1.2c0,0.4-0.2,0.7-0.4,1.2
			c-0.1,0.3-0.5,0.7-0.8,0.8c-0.4,0.3-0.8,0.3-1.3,0.4l-1.7,0.2L87,84.5z M89.2,93c1-0.1,1.8-0.3,2.4-0.7c0.6-0.4,1.1-0.8,1.5-1.4
			c0.3-0.6,0.6-1.1,0.7-1.7s0.2-1.2,0.1-1.8c0-0.7-0.2-1.3-0.4-1.9c-0.2-0.6-0.6-1.1-1-1.7c-0.5-0.4-1-0.9-1.7-1
			c-0.6-0.2-1.5-0.4-2.4-0.2l-3.5,0.3l0.8,10.5L89.2,93z"/>
	</g>
</g>
</svg>
