<svg width="62" height="62" viewBox="0 0 62 62" fill="none" xmlns="http://www.w3.org/2000/svg">
<g clip-path="url(#clip0_843_2)">
<path d="M31.0856 0.375622L0.340149 31.1211L30.8224 61.6034L61.5679 30.8579L31.0856 0.375622Z" fill="#AAAFB2"/>
<path d="M30.9994 2.80409L2.80353 31L30.9994 59.1959L59.1954 31L30.9994 2.80409Z" fill="#242B57"/>
<path d="M59.5173 31.0002L30.9994 59.5181L2.48163 31.0002L30.9994 2.48242L59.5173 31.0002ZM30.9994 58.8743L58.8735 31.0002L30.9994 3.12658L3.12535 31.0002L30.9994 58.8743Z" fill="white"/>
<path d="M62 30.8683L30.8687 61.9998L0 31.1308L31.131 0L62 30.8683ZM30.8687 61.2276L61.228 30.8683L31.132 0.772002L0.77268 31.1313L30.8687 61.2276Z" fill="#242B57"/>
<path d="M40.9663 29.1836V37.1326L35.8571 29.1836H32.0248V43.4389H35.8571V35.7331L40.9663 43.4389H44.7976V29.1836H40.9663Z" fill="#AAAFB2"/>
<path d="M36.1281 13.4746L31.0777 21.2306L26.0085 13.4746H22.2336V27.6983H26.0654V19.8954L31.1486 27.6983L36.1281 20.0725V27.6983H39.9612V13.4746H36.1281Z" fill="#AAAFB2"/>
<path d="M29.7462 29.1836H25.5296L21.1899 35.9702H21.0379V29.1836H17.2056V43.4389H21.0379V36.8885H21.1821L25.5296 43.4389H29.7462L25.0873 36.4364L29.7462 29.1836Z" fill="#AAAFB2"/>
<path d="M45.0251 43.6658H40.8441L36.0849 36.487V43.6658H31.7975V28.9551H35.9818L40.7385 36.3563V28.9551H45.0251V43.6658ZM41.0886 43.2106H44.5698V29.4103H41.1937V37.9068L35.7326 29.4103H32.2527V43.2106H35.6297V34.9766L41.0886 43.2106Z" fill="white"/>
<path d="M31.1486 28.114L26.2929 20.6611V27.925H22.0059V13.2461H26.1318L31.0772 20.8132L36.0046 13.2461H40.1887V27.925H35.9004V20.8363L31.1486 28.114ZM36.3557 27.4698H39.7335V13.7013H36.2514L31.0781 21.6463L25.8855 13.7013H22.4612V27.4698H25.8377V19.1282L31.1486 27.2808L36.3557 19.3067L36.3557 27.4698Z" fill="white"/>
<path d="M30.1712 43.6658H25.4076L21.2653 37.4253V43.6658H16.9778V28.9551H21.2653V35.4285L25.4054 28.9551H30.1625L25.3589 36.4328L30.1712 43.6658ZM25.6521 43.2106H29.3214L24.815 36.4375L29.3296 29.4103H25.6543L21.3146 36.1969H20.81V29.4103H17.433V43.2106H20.81V36.66H21.304L25.6521 43.2106Z" fill="white"/>
<path d="M45.0251 43.6658H40.8441L36.0849 36.487V43.6658H31.7975V28.9551H35.9818L40.7385 36.3563V28.9551H45.0251V43.6658ZM41.0886 43.2106H44.5698V29.4103H41.1937V37.9068L35.7326 29.4103H32.2527V43.2106H35.6297V34.9766L41.0886 43.2106Z" fill="white"/>
<path d="M31.1486 28.114L26.2929 20.6611V27.925H22.0059V13.2461H26.1318L31.0772 20.8132L36.0046 13.2461H40.1887V27.925H35.9004V20.8363L31.1486 28.114ZM36.3557 27.4698H39.7335V13.7013H36.2514L31.0781 21.6463L25.8855 13.7013H22.4612V27.4698H25.8377V19.1282L31.1486 27.2808L36.3557 19.3067L36.3557 27.4698Z" fill="white"/>
<path d="M30.1712 43.6658H25.4076L21.2653 37.4253V43.6658H16.9778V28.9551H21.2653V35.4285L25.4054 28.9551H30.1625L25.3589 36.4328L30.1712 43.6658ZM25.6521 43.2106H29.3214L24.815 36.4375L29.3296 29.4103H25.6543L21.3146 36.1969H20.81V29.4103H17.433V43.2106H20.81V36.66H21.304L25.6521 43.2106Z" fill="white"/>
</g>
<defs>
<clipPath id="clip0_843_2">
<rect width="62" height="61.9998" fill="white"/>
</clipPath>
</defs>
</svg>
